<svg width="500" height="500" viewBox="0 0 500 500" fill="none" xmlns="http://www.w3.org/2000/svg">
<mask id="mask0_57_122" style="mask-type:luminance" maskUnits="userSpaceOnUse" x="19" y="64" width="462" height="372">
<path d="M480.208 64.5834H19.7917V435.938H480.208V64.5834Z" fill="white"/>
</mask>
<g mask="url(#mask0_57_122)">
<path fill-rule="evenodd" clip-rule="evenodd" d="M150.58 164.792C153.452 164.647 156.404 163.538 159.017 162.222C168.154 157.616 175.912 150.676 181.502 142.106C187.042 147.437 194.131 150.87 201.748 151.911L201.676 152.436C205.003 168.216 201.014 186.836 191.066 199.53C189.342 201.732 187.455 203.799 185.568 205.866C183.28 208.372 180.993 210.878 179 213.622C175.363 218.628 172.706 224.777 173.632 230.892L174.167 230.979C179.457 231.5 184.671 232.218 188.823 232.883C190.034 233.078 191.153 233.265 192.16 233.443L192.207 233.451C192.518 233.507 192.855 233.567 193.202 233.636C194.692 233.911 196.524 234.277 198.555 234.697C214.33 230.004 222.876 217.422 228.321 203.832V203.827L228.692 175.773C228.763 169.914 231.028 164.294 235.039 160.022L235.034 160.018C231.697 137.11 217.34 109.751 177.673 108.401C145.44 107.302 131.889 135.064 124.813 149.559C122.631 154.03 121.065 157.239 119.756 157.949C116.74 159.583 113.259 159.83 109.796 160.076C108.764 160.148 107.732 160.221 106.716 160.331C87.1787 162.426 71.3412 179.525 66.9526 198.676C62.5641 217.827 66.1615 244.69 87.3865 265.697L87.4875 265.793C103.229 249.322 123.397 239.076 140.687 233.858C142.486 233.313 144.256 232.826 145.982 232.387C148.485 231.76 150.902 231.244 153.211 230.834C153.31 230.814 153.408 230.796 153.504 230.78L153.554 230.771C155.034 208.764 154.038 186.659 150.585 164.874L150.58 164.792ZM195.717 115.319C195.325 115.14 194.861 115.314 194.683 115.707C194.505 116.1 194.679 116.563 195.071 116.741C202.494 120.112 209.123 125.01 214.525 131.117C219.926 137.223 223.98 144.4 226.42 152.178C226.549 152.59 226.988 152.819 227.399 152.69C227.811 152.561 228.04 152.122 227.91 151.71C225.405 143.722 221.242 136.352 215.695 130.081C210.148 123.811 203.341 118.78 195.717 115.319Z" fill="#171717"/>
<path d="M459.687 253.679C464.067 258.82 466.637 265.673 465.87 272.386C465.297 277.402 462.938 282.084 459.881 286.102C456.377 290.658 451.992 294.463 446.986 297.29C441.982 300.117 436.459 301.908 430.747 302.557L430.352 302.542L431.23 280.213L430.415 279.76C433.554 279.572 436.655 278.993 439.307 277.378C443.494 274.825 445.885 269.984 446.503 265.123C447.12 260.261 446.17 255.338 444.945 250.592C444.275 248.011 443.521 245.456 442.683 242.924L442.84 242.872C449.251 245.008 455.308 248.538 459.687 253.679Z" fill="#666666" fill-opacity="0.8"/>
<path d="M427.496 166.688C427.707 161.335 425.843 156.108 422.292 152.097C418.742 148.085 413.78 145.6 408.441 145.159L408.446 145.087L413.92 145.111C416.8 144.971 419.677 145.432 422.369 146.464C425.061 147.496 427.509 149.077 429.557 151.106C431.605 153.136 433.208 155.569 434.265 158.252C435.321 160.934 435.808 163.807 435.694 166.688L433.24 230.955L432.535 249.435L432.613 249.971C429.852 250.347 427.119 250.626 424.356 250.838L424.293 250.057L427.496 166.688Z" fill="#171717"/>
<path d="M398.507 350.442C401.3 350.698 404.116 350.384 406.784 349.518C409.451 348.651 411.915 347.251 414.023 345.402C416.132 343.553 417.843 341.293 419.051 338.762C420.258 336.23 420.938 333.48 421.048 330.677L423.027 280.213L423.042 279.764C424.5 279.816 425.921 279.841 427.285 279.841C428.322 279.841 429.369 279.822 430.41 279.759L431.226 280.213L430.347 302.542L429.243 330.677C428.774 342.507 418.614 351.969 406.828 350.879H401.024L401.009 351.029L398.473 350.797L398.507 350.442Z" fill="#171717"/>
<path d="M382.683 358.235C382.968 358.269 383.233 358.396 383.438 358.597C383.642 358.798 383.774 359.062 383.813 359.346C383.852 359.63 383.795 359.919 383.651 360.168C383.508 360.416 383.286 360.61 383.021 360.719L303.712 393.402C301.613 394.266 299.286 394.405 297.1 393.797L183.194 362.175C182.929 362.102 182.694 361.947 182.523 361.732C182.352 361.516 182.254 361.253 182.243 360.978C182.233 360.703 182.309 360.432 182.463 360.205C182.617 359.977 182.839 359.804 183.097 359.71L234.551 341.038C235.219 340.791 235.936 340.709 236.644 340.796L382.683 358.235Z" fill="#171717"/>
<path d="M382.404 191.39V202.714L309.774 206.765L310.652 194.322H310.681C318.764 193.541 326.202 188.997 334.312 188.761C339.868 188.597 345.264 190.473 350.458 192.456C355.652 194.438 360.894 196.579 366.436 196.987C371.977 197.395 377.998 195.757 381.439 191.388L382.404 191.39Z" fill="url(#paint0_linear_57_122)"/>
<path d="M382.404 180.201V191.389H381.439C378.002 195.758 371.977 197.393 366.436 196.989C360.895 196.584 355.648 194.437 350.458 192.457C345.269 190.478 339.868 188.599 334.313 188.763C326.201 188.999 318.764 193.542 310.681 194.323H310.653L311.362 184.302L382.404 180.201Z" fill="#171717"/>
<path d="M398.473 350.798L233.287 335.729C231.275 335.543 229.247 335.791 227.34 336.458L165.365 358.047C164.879 358.214 164.432 358.478 164.053 358.823C160.73 359.981 162.105 373.571 165.456 374.642L224.563 393.484L224.558 393.503C224.558 393.503 224.095 394.902 223.246 397.187C222.291 399.768 220.844 403.477 219.027 407.566C214.624 417.486 208.041 429.659 200.954 433.488C188.363 440.297 70.9157 425.318 61.724 348.045C57.3641 311.383 69.5511 284.555 87.4865 265.794C103.228 249.324 123.396 239.075 140.685 233.858C138.456 237.797 137.252 242.233 137.184 246.759C137.13 251.333 138.599 255.795 141.36 259.442C145.431 264.641 152.009 267.25 158.491 268.48C164.012 269.531 169.785 269.734 175.187 268.191C178.651 267.201 181.878 265.519 184.673 263.246C187.469 260.974 189.774 258.158 191.45 254.969C193.126 251.78 194.138 248.284 194.425 244.693C194.712 241.102 194.267 237.491 193.118 234.076L193.2 233.637C194.69 233.912 196.522 234.279 198.553 234.698C209.992 237.061 227.817 241.151 227.817 241.151L226.756 320.976C226.705 324.683 228.054 328.273 230.534 331.029C233.014 333.785 236.442 335.505 240.134 335.844L398.506 350.443L398.473 350.798Z" fill="#666666" fill-opacity="0.8"/>
<path d="M193.119 234.075C194.268 237.489 194.713 241.101 194.426 244.692C194.14 248.283 193.128 251.779 191.452 254.968C189.776 258.157 187.47 260.972 184.675 263.245C181.879 265.518 178.652 267.199 175.188 268.19C169.787 269.733 164.014 269.53 158.492 268.479C152.01 267.249 145.432 264.64 141.362 259.441C138.6 255.794 137.131 251.332 137.185 246.758C137.253 242.232 138.457 237.796 140.687 233.857C142.485 233.312 144.255 232.825 145.982 232.386L145.987 232.406C141.371 238.308 142.264 247.226 146.527 253.384C149.722 258.002 154.454 261.333 159.878 262.784C165.302 264.235 171.066 263.711 176.139 261.305C181.213 258.9 185.267 254.77 187.577 249.652C189.887 244.534 190.303 238.762 188.75 233.366L188.822 232.884C190.033 233.077 191.152 233.265 192.16 233.443C192.483 233.501 192.837 233.564 193.202 233.636L193.119 234.075Z" fill="black"/>
<path d="M228.319 203.828L228.691 175.774C228.775 169.788 231.137 164.058 235.295 159.751C239.454 155.444 245.098 152.884 251.078 152.591L405.721 145.112C406.628 145.067 407.537 145.083 408.441 145.159C413.78 145.6 418.742 148.085 422.292 152.097C425.843 156.108 427.707 161.335 427.496 166.688L424.293 250.057" stroke="#171717" stroke-width="3" stroke-linecap="round" stroke-linejoin="round"/>
<path d="M423.03 280.213L421.051 330.678C420.94 333.48 420.26 336.231 419.053 338.763C417.845 341.294 416.134 343.553 414.026 345.402C411.917 347.251 409.453 348.651 406.786 349.518C404.118 350.384 401.302 350.698 398.509 350.441L240.135 335.843C236.443 335.504 233.015 333.784 230.535 331.028C228.055 328.272 226.706 324.682 226.757 320.974L227.818 241.149L228.319 203.832" stroke="#171717" stroke-width="3" stroke-linecap="round" stroke-linejoin="round"/>
<path d="M407.776 278.684L406.387 320.179C406.323 322.072 405.872 323.931 405.062 325.643C404.252 327.355 403.1 328.883 401.676 330.132C400.253 331.382 398.589 332.326 396.786 332.907C394.983 333.489 393.081 333.694 391.195 333.512L253.137 323.796C249.369 323.431 245.877 321.661 243.353 318.84C240.828 316.019 239.458 312.351 239.513 308.566L244.162 183.383C244.222 179.091 245.935 174.987 248.944 171.925C251.954 168.863 256.027 167.079 260.318 166.943L394.644 162.68C396.828 162.611 399.002 162.991 401.033 163.796C403.064 164.602 404.908 165.815 406.452 167.361C407.995 168.908 409.204 170.754 410.005 172.787C410.806 174.819 411.182 176.995 411.108 179.178L408.707 250.937" stroke="#171717" stroke-width="3" stroke-linecap="round" stroke-linejoin="round"/>
<path d="M238.225 388.222L165.456 364.996C164.848 364.801 164.301 364.451 163.869 363.979C163.438 363.508 163.136 362.933 162.994 362.31C162.853 361.687 162.876 361.038 163.061 360.427C163.247 359.815 163.589 359.263 164.052 358.823C164.432 358.478 164.879 358.214 165.364 358.047L227.34 336.458C229.247 335.791 231.275 335.543 233.286 335.729L398.473 350.8L401.009 351.031L409.536 351.808C410.176 351.866 410.778 352.133 411.249 352.57C411.72 353.006 412.033 353.586 412.14 354.219C412.246 354.853 412.14 355.503 411.837 356.069C411.534 356.635 411.053 357.085 410.467 357.349L321.25 397.578C306.923 404.041 290.712 404.971 275.739 400.192L252.594 392.982" stroke="#171717" stroke-width="3" stroke-linecap="round" stroke-linejoin="round"/>
<path d="M174.167 230.979C179.457 231.499 184.67 232.218 188.822 232.883C190.033 233.077 191.152 233.265 192.16 233.443C192.483 233.501 192.837 233.564 193.202 233.636C194.692 233.911 196.525 234.277 198.555 234.697C209.994 237.06 227.819 241.149 227.819 241.149" stroke="#171717" stroke-width="3" stroke-linecap="round" stroke-linejoin="round"/>
<path d="M224.558 393.503C224.558 393.503 224.095 394.901 223.246 397.187C222.291 399.767 220.844 403.476 219.027 407.566C214.624 417.486 208.041 429.658 200.954 433.488C188.363 440.297 70.9157 425.318 61.724 348.044C57.3641 311.382 69.5511 284.555 87.4865 265.793C103.228 249.324 123.396 239.074 140.685 233.858C142.484 233.313 144.254 232.826 145.981 232.387C148.484 231.762 150.9 231.241 153.21 230.834C153.326 230.81 153.441 230.791 153.552 230.771" stroke="#171717" stroke-width="3" stroke-linecap="round" stroke-linejoin="round"/>
<path d="M126.406 279.615C126.406 279.615 84.8735 306.169 133.212 354.169" stroke="#171717" stroke-width="3" stroke-linecap="round" stroke-linejoin="round"/>
<path d="M431.229 280.214L430.35 302.543L429.246 330.678C428.778 342.508 418.617 351.97 406.831 350.88H401.024" stroke="#171717" stroke-width="3" stroke-linecap="round" stroke-linejoin="round"/>
<path d="M408.446 145.087L413.92 145.111C416.8 144.971 419.677 145.432 422.369 146.464C425.061 147.496 427.508 149.077 429.556 151.106C431.604 153.136 433.208 155.569 434.264 158.252C435.321 160.934 435.808 163.807 435.694 166.688L433.24 230.955L432.535 249.435" stroke="#171717" stroke-width="3" stroke-linecap="round" stroke-linejoin="round"/>
<path d="M226.371 394.062L224.563 393.483L165.456 374.641C162.104 373.57 160.73 359.98 164.052 358.823" stroke="#171717" stroke-width="3" stroke-linecap="round" stroke-linejoin="round"/>
<path d="M411.118 351.902C411.803 351.965 412.28 352.732 412.579 353.894C413.582 357.771 412.56 366.047 410.467 366.992L321.25 407.223C306.923 413.685 290.711 414.617 275.739 409.837L275.56 409.779L243.34 399.497" stroke="#171717" stroke-width="3" stroke-linecap="round" stroke-linejoin="round"/>
<path d="M223.246 397.187C226.815 393.609 229.611 393.797 233.836 391.024C235.275 390.073 236.79 389.245 238.368 388.55C241.403 387.153 244.715 386.464 248.055 386.534C249.994 386.611 252.217 387.224 252.97 389.008C253.51 390.301 253.066 391.839 252.203 392.948C251.275 394.002 250.17 394.885 248.938 395.557C247.004 396.763 245.069 397.967 243.131 399.169C241.106 400.428 239.079 401.689 237.05 402.95" stroke="#171717" stroke-width="3" stroke-linecap="round" stroke-linejoin="round"/>
<path d="M219.282 407.619C230.094 410.792 248.729 417.828 262.594 416.922C274.501 416.146 274.385 415.094 275.552 409.808" stroke="#171717" stroke-width="3" stroke-linecap="round" stroke-linejoin="round"/>
<path d="M295.296 180.201L291.795 312.308" stroke="#171717" stroke-width="3" stroke-linecap="round" stroke-linejoin="round"/>
<path d="M265.323 201.493C269.75 200.856 274.223 200.61 278.692 200.759" stroke="#171717" stroke-width="3" stroke-linecap="round" stroke-linejoin="round"/>
<path d="M260.99 220.436C267.78 219.843 274.588 219.568 281.414 219.611" stroke="#171717" stroke-width="3" stroke-linecap="round" stroke-linejoin="round"/>
<path d="M261.919 246.971C267.795 247.719 273.746 247.666 279.608 246.812" stroke="#171717" stroke-width="3" stroke-linecap="round" stroke-linejoin="round"/>
<path d="M261.663 269.948C267.489 269.885 273.315 269.819 279.141 269.75" stroke="#171717" stroke-width="3" stroke-linecap="round" stroke-linejoin="round"/>
<path d="M260.53 286.256C264.917 286.527 269.32 286.425 273.691 285.952" stroke="#171717" stroke-width="3" stroke-linecap="round" stroke-linejoin="round"/>
<path d="M311.36 238.912C336.743 236.983 362.163 235.735 387.622 235.169" stroke="#171717" stroke-width="3" stroke-linecap="round" stroke-linejoin="round"/>
<path d="M309.774 252.812C330.579 252.504 351.384 252.193 372.189 251.881" stroke="#171717" stroke-width="3" stroke-linecap="round" stroke-linejoin="round"/>
<path d="M314.544 219.698C317.192 219.56 319.841 219.423 322.492 219.289" stroke="#171717" stroke-width="3" stroke-linecap="round" stroke-linejoin="round"/>
<path d="M346.547 219.427L361.743 219.933" stroke="#171717" stroke-width="3" stroke-linecap="round" stroke-linejoin="round"/>
<path d="M382.404 191.389V180.201L311.361 184.3L310.652 194.321L309.774 206.764L382.404 202.713V191.389Z" stroke="#171717" stroke-width="3" stroke-linecap="round" stroke-linejoin="round"/>
<path d="M310.681 194.323C318.764 193.542 326.202 188.998 334.312 188.762C339.868 188.598 345.264 190.474 350.458 192.457C355.652 194.439 360.894 196.58 366.435 196.988C371.977 197.396 377.998 195.758 381.439 191.389" stroke="#171717" stroke-width="3" stroke-linecap="round" stroke-linejoin="round"/>
<path d="M427.713 270.375C419.659 270.279 411.947 270.004 403.054 269.604C401.521 269.536 399.592 268.813 398.29 269.633C396.988 270.453 396.582 272.425 396.93 273.92C397.393 275.899 399.703 276.736 401.69 277.19C403.623 277.629 405.688 278.015 407.824 278.347C412.866 279.111 417.947 279.585 423.044 279.765C424.503 279.817 425.923 279.842 427.288 279.842C428.325 279.842 429.371 279.823 430.413 279.76C433.553 279.572 436.654 278.994 439.306 277.378C443.492 274.826 445.884 269.985 446.501 265.123C447.118 260.262 446.169 255.338 444.944 250.592C444.273 248.012 443.519 245.456 442.682 242.924C441.924 240.624 441.096 238.347 440.198 236.095C439.61 234.61 438.959 233.096 437.806 231.986C436.654 230.877 434.869 230.284 433.422 230.959" stroke="#171717" stroke-width="3" stroke-linecap="round" stroke-linejoin="round"/>
<path d="M427.713 270.375C428.846 270.414 429.946 270.427 431.007 270.409C429.902 270.404 428.802 270.39 427.713 270.375Z" stroke="#171717" stroke-width="3" stroke-linecap="round" stroke-linejoin="round"/>
<path d="M413.337 259.977C408.321 259.982 403.353 260.117 398.926 260.536C397.676 260.637 396.483 261.106 395.497 261.882C394.538 262.673 393.983 264.091 394.548 265.195C395.189 266.454 396.853 266.632 398.251 266.821C408.084 268.166 418.887 270.076 427.713 270.375" stroke="#171717" stroke-width="3" stroke-linecap="round" stroke-linejoin="round"/>
<path d="M413.336 259.977C419.923 260.43 426.529 260.546 433.128 260.325C427.287 260.223 420.266 259.972 413.336 259.977Z" stroke="#171717" stroke-width="3" stroke-linecap="round" stroke-linejoin="round"/>
<path d="M434.035 249.772C433.558 249.84 433.085 249.907 432.613 249.97C429.852 250.346 427.119 250.626 424.356 250.838C419.369 251.219 414.277 251.388 408.721 251.509C408.022 251.518 407.315 251.533 406.594 251.547C405.393 251.571 400.807 251.909 399.784 252.537C399.267 252.838 398.846 253.28 398.57 253.811C398.294 254.342 398.176 254.941 398.227 255.536C398.589 258.112 405.509 259.391 413.336 259.978" stroke="#171717" stroke-width="3" stroke-linecap="round" stroke-linejoin="round"/>
<path d="M442.841 242.871C449.251 245.007 455.308 248.538 459.687 253.679C464.066 258.819 466.637 265.673 465.87 272.386C465.297 277.402 462.938 282.084 459.88 286.102C456.376 290.658 451.991 294.463 446.986 297.29C441.981 300.117 436.458 301.908 430.747 302.557" stroke="#171717" stroke-width="3" stroke-linecap="round" stroke-linejoin="round"/>
<path d="M183.097 359.71L234.55 341.038C235.219 340.791 235.937 340.709 236.643 340.796L382.685 358.235C382.97 358.269 383.235 358.396 383.44 358.597C383.644 358.798 383.776 359.062 383.815 359.346C383.853 359.63 383.796 359.919 383.653 360.168C383.51 360.416 383.288 360.61 383.022 360.719L303.712 393.402C301.614 394.266 299.287 394.405 297.1 393.797L183.194 362.175C182.929 362.102 182.694 361.947 182.523 361.732C182.352 361.517 182.254 361.253 182.243 360.978C182.232 360.704 182.309 360.432 182.463 360.205C182.616 359.977 182.839 359.804 183.097 359.71Z" stroke="#171717" stroke-width="3" stroke-linecap="round" stroke-linejoin="round"/>
<path d="M173.63 230.892C172.704 224.777 175.361 218.628 178.998 213.622C182.634 208.617 187.25 204.404 191.064 199.53C201.012 186.837 205.002 168.217 201.674 152.437" stroke="#171717" stroke-width="3" stroke-linecap="round" stroke-linejoin="round"/>
<path d="M150.583 164.875C154.036 186.66 155.032 208.764 153.552 230.772" stroke="#171717" stroke-width="3" stroke-linecap="round" stroke-linejoin="round"/>
<path d="M228.319 203.828V203.832C222.875 217.422 214.329 230.005 198.554 234.697" stroke="#171717" stroke-width="3" stroke-linecap="round" stroke-linejoin="round"/>
<path d="M87.3865 265.697C66.1615 244.69 62.5641 217.827 66.9526 198.676C71.3412 179.525 87.1787 162.426 106.716 160.331C111.143 159.854 115.84 160.071 119.756 157.949C125.307 154.934 135.497 106.964 177.673 108.401C217.34 109.751 231.697 137.11 235.034 160.018" stroke="#171717" stroke-width="3" stroke-linecap="round" stroke-linejoin="round"/>
<path d="M145.64 163.901C147.185 164.606 148.883 164.913 150.578 164.793C153.452 164.648 156.404 163.539 159.015 162.222C168.152 157.616 175.908 150.677 181.499 142.107C187.038 147.437 194.127 150.87 201.744 151.912C203.602 152.169 205.478 152.276 207.353 152.23" stroke="#171717" stroke-width="3" stroke-linecap="round" stroke-linejoin="round"/>
<path d="M162.413 167.329C163.296 166.143 164.61 165.352 166.071 165.126C167.532 164.899 169.024 165.256 170.225 166.119" stroke="#171717" stroke-width="3" stroke-linecap="round" stroke-linejoin="round"/>
<path d="M182.465 163.746C183.704 162.47 185.346 161.661 187.113 161.457C188.879 161.253 190.662 161.667 192.159 162.627" stroke="#171717" stroke-width="3" stroke-linecap="round" stroke-linejoin="round"/>
<path d="M179.364 155.542C181.568 154.015 184.108 153.043 186.769 152.71C189.429 152.378 192.131 152.694 194.643 153.632" stroke="#171717" stroke-width="3" stroke-linecap="round" stroke-linejoin="round"/>
<path d="M181.747 176.97C182.457 176.742 183.22 176.733 183.936 176.943C184.652 177.153 185.289 177.572 185.764 178.147C186.214 178.742 186.454 179.47 186.446 180.216C186.438 180.962 186.183 181.684 185.72 182.27C185.227 182.828 184.548 183.187 183.809 183.283C183.071 183.379 182.322 183.204 181.703 182.791" stroke="#171717" stroke-width="3" stroke-linecap="round" stroke-linejoin="round"/>
<path d="M175.28 195.827C171.074 196.709 166.42 195.122 165.171 189.74" stroke="#171717" stroke-width="3" stroke-linecap="round" stroke-linejoin="round"/>
<path d="M145.987 232.407C141.371 238.309 142.264 247.227 146.527 253.385C149.721 258.003 154.454 261.334 159.878 262.785C165.303 264.237 171.066 263.712 176.14 261.307C181.214 258.902 185.268 254.771 187.577 249.653C189.887 244.535 190.303 238.762 188.75 233.366" stroke="#171717" stroke-width="3" stroke-linecap="round" stroke-linejoin="round"/>
<path d="M153.317 230.521C153.279 230.622 153.24 230.729 153.213 230.833C152.461 233.093 152.404 235.526 153.051 237.819C153.697 240.111 155.017 242.157 156.84 243.691C160.664 246.792 166.697 247.086 170.694 244.197C174.69 241.308 176.085 235.434 173.602 231.248" stroke="#171717" stroke-width="3" stroke-linecap="round" stroke-linejoin="round"/>
<path d="M140.729 233.776C140.715 233.805 140.701 233.828 140.686 233.858C138.457 237.797 137.253 242.233 137.185 246.759C137.131 251.333 138.6 255.795 141.361 259.442C145.431 264.641 152.009 267.25 158.491 268.48C164.012 269.531 169.786 269.734 175.188 268.191C178.652 267.2 181.879 265.519 184.674 263.246C187.469 260.973 189.775 258.158 191.451 254.969C193.127 251.78 194.139 248.284 194.426 244.693C194.712 241.102 194.268 237.49 193.118 234.076" stroke="#171717" stroke-width="3" stroke-linecap="round" stroke-linejoin="round"/>
<path d="M162.741 249.512C162.671 249.943 162.707 250.385 162.845 250.799C162.984 251.213 163.221 251.587 163.536 251.89C163.975 252.234 164.513 252.426 165.07 252.436C165.627 252.447 166.172 252.275 166.623 251.947C167.061 251.606 167.414 251.165 167.65 250.661C167.886 250.157 168 249.605 167.983 249.049C167.944 245.186 163.16 246.344 162.741 249.512Z" stroke="#171717" stroke-width="3" stroke-linecap="round" stroke-linejoin="round"/>
<path d="M115.388 270.352L115.161 264.679" stroke="#171717" stroke-width="3" stroke-linecap="round" stroke-linejoin="round"/>
<path d="M111.302 267.812C113.958 267.651 116.579 267.119 119.088 266.232" stroke="#171717" stroke-width="3" stroke-linecap="round" stroke-linejoin="round"/>
<path d="M105.547 335.607L99.9745 331.828" stroke="#171717" stroke-width="3" stroke-linecap="round" stroke-linejoin="round"/>
<path d="M100.058 337.579L104.007 329.569" stroke="#171717" stroke-width="3" stroke-linecap="round" stroke-linejoin="round"/>
<path d="M172.15 339.596L177.854 333.953" stroke="#171717" stroke-width="3" stroke-linecap="round" stroke-linejoin="round"/>
<path d="M176.241 339.78L170.833 331.131" stroke="#171717" stroke-width="3" stroke-linecap="round" stroke-linejoin="round"/>
<path d="M201.431 293.771L206.207 290.609" stroke="#171717" stroke-width="3" stroke-linecap="round" stroke-linejoin="round"/>
<path d="M204.77 295.335L201.392 288.74" stroke="#171717" stroke-width="3" stroke-linecap="round" stroke-linejoin="round"/>
<path d="M155.069 303.066L149.67 297.347" stroke="#171717" stroke-width="3" stroke-linecap="round" stroke-linejoin="round"/>
<path d="M153.906 297.014C152.391 299.264 150.724 301.409 148.918 303.433" stroke="#171717" stroke-width="3" stroke-linecap="round" stroke-linejoin="round"/>
<path d="M194.369 407.33L192.338 399.667" stroke="#171717" stroke-width="3" stroke-linecap="round" stroke-linejoin="round"/>
<path d="M188.77 405.692L197.667 402.151" stroke="#171717" stroke-width="3" stroke-linecap="round" stroke-linejoin="round"/>
<path d="M141.34 411.367L132.986 406.037" stroke="#171717" stroke-width="3" stroke-linecap="round" stroke-linejoin="round"/>
<path d="M133.548 413.37L139.719 404.207" stroke="#171717" stroke-width="3" stroke-linecap="round" stroke-linejoin="round"/>
<path d="M118.333 375.386L112.212 375.191" stroke="#171717" stroke-width="3" stroke-linecap="round" stroke-linejoin="round"/>
<path d="M114.259 380.253L115.28 371.061" stroke="#171717" stroke-width="3" stroke-linecap="round" stroke-linejoin="round"/>
<path d="M80.0407 356.762L74.424 353.188" stroke="#171717" stroke-width="3" stroke-linecap="round" stroke-linejoin="round"/>
<path d="M78.5813 352.22L74.488 357.831" stroke="#171717" stroke-width="3" stroke-linecap="round" stroke-linejoin="round"/>
<path d="M213.162 255.495L218.906 250.01" stroke="#171717" stroke-width="3" stroke-linecap="round" stroke-linejoin="round"/>
<path d="M218.245 255.316L213.273 250.081" stroke="#171717" stroke-width="3" stroke-linecap="round" stroke-linejoin="round"/>
<path d="M445.59 289.186L447.18 284.42" stroke="#171717" stroke-width="3" stroke-linecap="round" stroke-linejoin="round"/>
<path d="M448.784 287.812L444.018 285.542" stroke="#171717" stroke-width="3" stroke-linecap="round" stroke-linejoin="round"/>
<path d="M217.508 105.801L230.328 97.7172" stroke="#171717" stroke-width="3" stroke-linecap="round" stroke-linejoin="round"/>
<path d="M209.097 101.317C213.616 89.3328 218.451 77.475 223.602 65.7443" stroke="#171717" stroke-width="3" stroke-linecap="round" stroke-linejoin="round"/>
<path d="M201.175 95.6011L199.643 81.3021" stroke="#171717" stroke-width="3" stroke-linecap="round" stroke-linejoin="round"/>
<path d="M244.068 112.732L249.181 111.595" stroke="#171717" stroke-width="3" stroke-linecap="round" stroke-linejoin="round"/>
<path d="M246.856 115.018L245.13 108.776" stroke="#171717" stroke-width="3" stroke-linecap="round" stroke-linejoin="round"/>
<path d="M257.135 75.4162L250.708 74.2766" stroke="#171717" stroke-width="3" stroke-linecap="round" stroke-linejoin="round"/>
<path d="M253.145 78.6453L254.281 71.8281" stroke="#171717" stroke-width="3" stroke-linecap="round" stroke-linejoin="round"/>
<path d="M48.0919 332.135C47.7231 365.505 65.0344 398.567 92.6709 417.273" stroke="#171717" stroke-width="3" stroke-linecap="round" stroke-linejoin="round"/>
<path d="M167.826 99.2828L163.469 95.7411" stroke="#171717" stroke-width="3" stroke-linecap="round" stroke-linejoin="round"/>
<path d="M163.198 100.372L167.261 94.6432" stroke="#171717" stroke-width="3" stroke-linecap="round" stroke-linejoin="round"/>
<path d="M114.046 147.984L105.549 141.611" stroke="#171717" stroke-width="3" stroke-linecap="round" stroke-linejoin="round"/>
<path d="M106.527 150.478L113.069 139.117" stroke="#171717" stroke-width="3" stroke-linecap="round" stroke-linejoin="round"/>
<path d="M135.983 99.5312L130.818 96.2526" stroke="#171717" stroke-width="3" stroke-linecap="round" stroke-linejoin="round"/>
<path d="M130.601 102.045L135.748 92.2302" stroke="#171717" stroke-width="3" stroke-linecap="round" stroke-linejoin="round"/>
<path d="M23.6044 191.285C25.9233 189.484 28.7452 188.45 31.6787 188.325C34.6122 188.201 37.5118 188.992 39.9752 190.589C42.3714 192.286 44.1799 194.687 45.1499 197.458C46.1199 200.23 46.2032 203.234 45.3882 206.055C44.4309 209.133 42.0242 212.039 38.8221 212.409C35.62 212.78 32.2367 209.458 33.4054 206.455C34.1315 204.593 36.294 203.553 38.2851 203.728C40.2762 203.903 42.0637 205.091 43.4023 206.575C44.871 208.244 45.8772 210.269 46.3206 212.448C46.7641 214.627 46.6293 216.884 45.9299 218.995C44.0028 224.578 38.4361 228.123 35.7658 233.391C34.6956 235.502 34.1244 237.83 34.0962 240.197C34.068 242.563 34.5836 244.905 35.6032 247.04C36.6228 249.176 38.1193 251.049 39.9771 252.515C41.835 253.981 44.0047 255 46.319 255.495" stroke="#171717" stroke-width="3" stroke-linecap="round" stroke-linejoin="round"/>
<path d="M457.061 162.556C450.77 169.871 450.142 181.476 455.606 189.428C457.164 191.695 459.241 193.723 461.845 194.608C464.449 195.494 467.629 195.015 469.449 192.954C471.269 190.893 471.131 187.218 468.839 185.697C465.686 183.605 461.186 187.037 461.019 190.817C460.852 194.597 463.497 197.912 466.359 200.387C471.37 204.723 478.02 208.57 478.911 215.136C479.162 217.372 478.684 219.63 477.547 221.571C476.411 223.512 474.677 225.034 472.604 225.909" stroke="#171717" stroke-width="3" stroke-linecap="round" stroke-linejoin="round"/>
<path d="M27.5 225.215L20.6605 225.745" stroke="#171717" stroke-width="3" stroke-linecap="round" stroke-linejoin="round"/>
<path d="M24.1209 228.884L24.0438 222.077" stroke="#171717" stroke-width="3" stroke-linecap="round" stroke-linejoin="round"/>
<path d="M157.009 76.2151L160.114 78.8448C160.208 78.9239 160.275 79.0302 160.306 79.1489C160.338 79.2677 160.332 79.3932 160.29 79.5083C160.248 79.6239 160.172 79.7239 160.071 79.7942C159.971 79.8651 159.852 79.9031 159.729 79.9036L155.66 79.9245C155.542 79.925 155.426 79.9609 155.327 80.0276C155.229 80.0937 155.152 80.188 155.107 80.2979L153.566 84.063C153.519 84.1765 153.439 84.2734 153.336 84.3396C153.233 84.4062 153.112 84.4396 152.989 84.4354C152.867 84.4312 152.748 84.3896 152.65 84.3161C152.552 84.2422 152.478 84.1406 152.44 84.0239L151.163 80.1609C151.126 80.0484 151.056 79.9495 150.962 79.876C150.868 79.8031 150.755 79.7593 150.637 79.7505L146.58 79.4484C146.457 79.4396 146.34 79.3932 146.245 79.3156C146.15 79.2385 146.08 79.1338 146.046 79.0156C146.012 78.8974 146.015 78.7718 146.055 78.6557C146.094 78.5396 146.168 78.438 146.267 78.3651L149.548 75.9567C149.644 75.887 149.716 75.7901 149.757 75.6786C149.797 75.5677 149.804 75.4468 149.777 75.3317L148.81 71.3797C148.781 71.2604 148.789 71.1349 148.833 71.0203C148.878 70.9057 148.956 70.8078 149.057 70.739C149.159 70.6703 149.28 70.6344 149.403 70.6359C149.525 70.638 149.644 70.6771 149.744 70.7489L153.048 73.1234C153.144 73.1927 153.259 73.2317 153.378 73.2359C153.496 73.2401 153.614 73.2094 153.715 73.1469L157.175 71.0062C157.279 70.9416 157.401 70.9104 157.523 70.9172C157.646 70.9239 157.764 70.9682 157.861 71.0437C157.957 71.1192 158.029 71.2229 158.065 71.3401C158.101 71.4573 158.101 71.5833 158.063 71.7L156.823 75.5724C156.787 75.6859 156.785 75.8078 156.818 75.9224C156.852 76.0364 156.918 76.1385 157.009 76.2151Z" fill="#171717"/>
<g opacity="0.1">
<path d="M181.675 142.701C179.37 143.768 177.959 146.798 176.363 148.717C174.592 150.91 172.551 152.871 170.286 154.55C165.736 157.832 160.439 159.924 154.875 160.636C153.133 160.876 151.379 163.209 151.584 164.959C152.773 174.974 153.247 185.06 153.003 195.142C152.874 200.09 152.446 205.037 151.865 209.946C151.575 212.398 151.228 214.843 150.823 217.278C150.407 219.807 149.534 222.518 149.828 225.082C150.177 228.134 154.133 229.75 155.924 226.733C157.263 224.479 157.566 221.812 158.045 219.269C158.535 216.676 158.969 214.071 159.347 211.457C160.083 206.366 160.617 201.26 160.994 196.13C161.782 185.747 161.634 175.315 160.552 164.958L156.069 169.44C161.302 168.834 166.346 167.126 170.87 164.427C175.393 161.727 179.292 158.099 182.31 153.782C184.092 151.289 186.434 147.394 185.492 144.251C184.976 142.529 183.207 141.993 181.68 142.7L181.675 142.701Z" fill="#171717"/>
</g>
<g opacity="0.1">
<path d="M150.534 231.842C140.189 232.16 129.958 236.87 120.888 241.547C111.591 246.329 102.939 252.272 95.1407 259.235C79.4594 273.289 67.4454 292.208 62.9532 312.9C58.3235 334.218 60.6173 357.128 71.298 376.344C82.0964 395.771 100.829 409.758 120.754 418.835C145.758 430.224 173.31 434.797 200.684 434.12C207.082 433.964 207.108 424.011 200.684 424.159C177.871 424.68 155.015 421.509 133.628 413.36C114.863 406.21 96.3027 394.801 84.5485 378.156C73.1021 361.948 69.1079 341.646 71.6782 322.107C74.2355 302.673 83.1709 284.922 96.7235 270.857C104.169 263.165 112.661 256.561 121.95 251.24C126.666 248.5 131.565 246.088 136.613 244.021C141.789 241.924 147.117 240.041 152.052 237.44C154.682 236.054 153.472 231.754 150.536 231.844L150.534 231.842Z" fill="#666666"/>
</g>
</g>
<defs>
<linearGradient id="paint0_linear_57_122" x1="346.089" y1="188.751" x2="346.089" y2="206.765" gradientUnits="userSpaceOnUse">
<stop stop-color="#70E000"/>
<stop offset="1" stop-color="#07AA50"/>
</linearGradient>
</defs>
</svg>
